<svg id="Layer_1" data-name="Layer 1" xmlns="http://www.w3.org/2000/svg" viewBox="0 0 760.79 888.65"><defs><style>.cls-1{fill:#769c3f;}.cls-2{fill:#447336;}.cls-3{fill:#994c9c;}.cls-4{fill:#c688bb;}.cls-5{fill:#b570af;}</style></defs><path class="cls-1" d="M452.11,692.74,483,712.27c1.66-9.49,3.36-18.56,4.82-27.66q8.55-53.43,12.93-107.38a1194.22,1194.22,0,0,0,3.15-123.62c-.34-14.62-1.32-29.23-2.05-43.84a25.16,25.16,0,0,0-.65-3.38c-1.62-2.65.4-4.73,1.15-7,1.62-4.84,4.24-9.52.44-14.6a3.81,3.81,0,0,1,.6-5.09c6-5.4,11.27-11.68,18.11-16.17a8,8,0,0,1,3.37.79c23.49,10.09,47.69,8.21,72,4.32,3.65-.58,3.91-2.11,2.21-5.05-4.74-8.2-9.16-16.56-14.28-24.54-1.68-2.62-3.79-5.09-4.22-8.37.45-2,2.24-2.34,3.74-2.9,17.83-6.7,31.61-19,44.1-32.74a214.41,214.41,0,0,0,27.78-38.39c.86-1.52,3.52-3.8-.81-4.62-27.28-6.33-54.78-11.38-82.72-13.34a169.87,169.87,0,0,0-35.34,1.16c-3.6-1.71-.82-3.76,0-5.19A353.74,353.74,0,0,1,557.56,205c4.49-6,8.81-12.09,14.55-17,1.62.47,2.45-.78,3.39-1.64,21.69-19.93,47.83-30.34,76.41-35.23,41.12-7,81.91-3.32,122.51,4.48A534.93,534.93,0,0,1,850,176c6.92,2.42,6.92,2.45,2.14,8.2-28.59,16.4-57.51,32.24-86.26,48.35Q726,254.89,686.05,277.16q-31.81,17.8-63.67,35.56a7.05,7.05,0,0,1-3,1.06c33.54-3.48,65.19,3,95.17,18.22,3,1.55,6.5,2.74,8.36,6,48.23,30.71,79,75.19,100.56,127,1.75,4.21,1.13,6.29-2.85,8.6-34.47,20-70.65,35.3-110.1,42.57-52.22,9.64-96.89-4.73-135.52-40.47-24.64-22.81-44.9-49.05-62.8-77.27-.77-1.21-1.08-2.84-2.86-3.44a1070.91,1070.91,0,0,1,3.37,118.24c-.89,35.1-3.17,70.14-7.28,105-.39,3.31.45,4.23,3.63,4.81,8.31,1.51,16.75,2.41,24.9,4.8-.16,3.76-.44,7.47-3.85,10,.23-2.45-1.66-2.53-3.25-2.81-6.22-1.1-12.51-1.91-18.65-3.33-3.24-.74-4.16-.19-4.62,3.2-2.71,19.76-5.65,39.49-8.62,59.21-1,6.9-2.41,13.74-3.63,20.61-10.6,59.9-31.23,144.23-56.86,212.92-1.45,3.89-2.83,4.7-6.7,3.09-3.51-1.45-2.78-3.18-1.83-5.74,24-65,41.29-131.86,54.63-199.79.37-1.89.62-3.43-1.43-4.72C472,716,465,711.34,457.87,706.67a5.53,5.53,0,0,0-3.81-.69C451.92,701.78,450.16,697.53,452.11,692.74Z" transform="translate(-112.98 -42.92)"/><path class="cls-2" d="M521.07,364.11c-4.65,5.66-10.23,10.36-15.77,15.1-1.75,1.51-3.32,3.34-1.35,5.47,3.59,3.88,2.3,7.81.74,11.91-1.24,3.24-2.35,6.53-3.51,9.8-4.42,10.38-9,20.67-13.95,30.82-17.59,36.13-45.4,59.6-84.43,69.75-13.91,3.61-27.75,6.92-42.29,5.11-4-.49-6.05-1.13-4.82-6.32A344.9,344.9,0,0,1,374,450.19c-7.53,1-14.74,2.13-22,2.83-43.59,4.22-83.92-6.23-121.51-27.86-44.71-25.73-80.16-61.28-108.66-104,.46-2.81,2.83-2.59,4.66-2.58,11.64,0,23.3-.79,34.92.55a69.06,69.06,0,0,0,9,.31c26.63-.39,53.21,1.26,79.8,2.23,28.07,1,56.12,2.9,84.15,4.9,8.46.6,16.89,1.53,25.36,2.1,2.62.18,5.34.46,7.47,2.35,1.55,2.44.43,4.82-.21,7.19a218.7,218.7,0,0,0-7.5,58.14c0,1.72-1.12,4.27,2.07,4.71,13-3.09,25.38-7.84,37.84-12.44,19.5-7.2,38.55-15.4,56.36-26.25,6.57-4,12.72-8.46,17.55-14.54a7.27,7.27,0,0,1,4-2.83c10,.46,19.43,3.65,29.08,5.8C511.48,355,516.81,359,521.07,364.11Z" transform="translate(-112.98 -42.92)"/><path class="cls-1" d="M114,509.06c-2.06-3.32-.73-4.91,2.65-6.15C157.74,487.82,200,478.94,244,481c45.25,2.15,81.55,21.66,109.86,56.75,30.11,37.32,49.67,80,64,125.35,2,6.22,4.66,10.81,10.52,14s11.48,7.34,17.22,11c1.36.87,2.56,2.21,4.45,1.89a.72.72,0,0,1,1.12.14.91.91,0,0,1-.24.77c-8.79,4.17-13.23,12.76-19.5,19.46-13.41,14.3-26.52,28.93-42.29,40.7-9.81,7.32-15.9,16.77-19.34,28.23-3.5,11.71-4.58,23.78-5.5,35.88-.15,2,.36,4.05-1.26,5.67-18.21-15.15-33.72-32.34-39.23-56.18-4.06-17.61,1.3-32.21,16.37-42.77,17.39-12.18,37.38-17.89,57.63-22.82a307.85,307.85,0,0,1,33.83-6.26,3.35,3.35,0,0,0,2.85-1.4c-8.66-5-16.22-11.6-25.39-15.65.38-2.64,3.3-1.76,4.84-3.69a58.68,58.68,0,0,0-6.65-6.08c-24.57-20.14-51.64-36.53-79-52.4-33.86-19.62-68.57-37.71-103.72-54.89-34.84-17-69.91-33.6-105.38-49.31C117.41,508.62,115.77,508.11,114,509.06Z" transform="translate(-112.98 -42.92)"/><path class="cls-2" d="M114,509.06c-.06-3.35,1.55-2.8,3.75-1.79,10.12,4.65,20.33,9.1,30.43,13.79,34.86,16.16,69.69,32.42,103.87,50,46,23.64,91.61,47.93,134.22,77.44a298.28,298.28,0,0,1,30.13,23.73c-1.75,2.62-5,2.06-7.27,3.55-36.51,13.44-74,22-113.14,20.07-56.5-2.76-101.11-27.87-134.4-73.28-24.4-33.28-39-70.87-47.42-111A17.07,17.07,0,0,1,114,509.06Z" transform="translate(-112.98 -42.92)"/><path class="cls-1" d="M536,628.12c2.54.11,2.73-2,3.36-3.61,4.9-12.89,9.85-25.77,14.68-38.69,7.55-20.23,18.59-37.71,38.86-47.32,21.35-10.13,43.61-12.54,66.55-6.06,6.48,1.83,6.48,2,4.77,8.41-5.43,20.38-14,39.11-28.94,54.45-18.52,19-41.1,24.7-66.74,20.14a72.19,72.19,0,0,1-11.62-2.73c-3-1.07-3.79.19-4.59,2.5a65.13,65.13,0,0,1-3.56,9.3c-2.2,4.19-1.17,5.69,3.44,6.45,14.6,2.37,29.14,5.16,43.71,7.73,2.39.43,4.88,1.3,7.13-.52,7.73-.19,15.18,1.9,22.72,3.06,24.86,3.83,49.67,8,74.52,11.85,51.52,8,103,16.38,154.5,24.34,4.77.73,9.42,2,14.2,2.65l4.82,3.08a249.74,249.74,0,0,1-24.28,18.94c-26.12,18.42-53.67,34.13-84.77,42.5-24.66,6.63-49.43,8.19-73.1-3.6-17.7-8.82-33-21.22-47.5-34.59-17-15.73-31.48-33.44-40.52-55.08-.61-1.46-1.27-2.63-3-2.89-11.16-1.68-22.11-4.7-33.44-5.41-1.29,1.06-2.5.36-3.67-.25-8.05-4.21-16.05-8.52-24.59-11.73C537.54,630.54,536,630.06,536,628.12Z" transform="translate(-112.98 -42.92)"/><path class="cls-1" d="M367.17,332c-6.5-3.15-13.65-2.22-20.45-2.76-17-1.35-34-2.66-51.08-3.42-12.57-.56-25.15-1.32-37.73-2-17.9-.92-35.82-1.21-53.7-2.13-13-.67-25.94.12-38.84-.88s-25.57-.65-38.35-.8c-1.74,0-3.72-.66-5.13,1.09-2.72-2.57.11-3.81,1.42-5.11a387.2,387.2,0,0,1,49-41c29.84-21.29,61.53-38.94,97.23-48.44,29.2-7.78,58.41-8.66,87.56.34a3.09,3.09,0,0,0,1,0c3.14-.25,4.17,2.39,5.58,4.3,8.39,11.41,17,22.62,27.27,32.48a63.37,63.37,0,0,0,17.65,12c1.62.74,3.6,1.09,3.91,3.37-.3,1.56-1.62,2-2.83,2.54-20.7,8.52-31.9,25.2-39.17,45.33C369.8,328.88,369.9,331.43,367.17,332Z" transform="translate(-112.98 -42.92)"/><path class="cls-2" d="M572.11,188c-2.31,5.07-6.75,8.48-10,12.84-9.22,12.38-18.07,25-26.07,38.22-.58,1-1.22,1.74-2.43.81a4.63,4.63,0,0,1-.5-3.36c3.1-22.43-3.14-42.74-14.08-62a109.24,109.24,0,0,0-9.9-14.94c-3.58-4.42-4.18-4.51-8.89-1-15.63,11.48-26.14,26.69-32.53,44.88-.71,2-1,4.25-2.65,5.83-4.14-.5-4.72-4.36-6.29-7-6.4-11-15-19.63-26.5-24.94a106,106,0,0,0-34.13-9c-5.34-.54-11,.36-16-2.27,10.67-46.19,33.94-85.62,64.82-121,1.69-1.92,2.95-2.9,5.7-1.14,38.84,24.79,73.48,54,98.63,93.24C561.3,152.72,568.93,169.46,572.11,188Z" transform="translate(-112.98 -42.92)"/><path class="cls-3" d="M382.11,166c12,.33,23.82,1.36,35.45,4.43,19.81,5.23,35.12,16.12,44.4,34.77.72,1.45,1.15,3.19,2.89,3.91.94,1.4.59,2.91.26,4.35-4.76,20.91,1.83,39.48,12.09,57.15,6.46,11.12,5.41,13.54-7.29,14.94-15.82,1.75-31.57,1.71-47.11-2.12-3.65-.9-7.56-1.44-10.47-4.28-22.81-9.59-36.08-29.19-50.2-47.88-1.21-1.59-2.22-3.33-4.08-4.29.2-2.08-1.34-3.34-2.33-4.82-10.55-15.76-20.47-31.89-29.7-49C344.67,168.29,363.29,166.4,382.11,166Z" transform="translate(-112.98 -42.92)"/><path class="cls-2" d="M723,338c-13.44-7.77-27.51-14.1-42.57-18-18.73-4.8-37.68-7.58-57.08-5.14a70.65,70.65,0,0,1-7.56,0l29.59-16.61q41.1-23,82.21-46c21.91-12.22,43.92-24.29,65.84-36.51,18-10,35.89-20.24,53.89-30.28,1.4-.78,2.74-2.66,4.82-1.33-14.45,21.38-30.28,41.74-46.33,61.91-23.34,29.32-47.88,57.59-74.62,83.89Z" transform="translate(-112.98 -42.92)"/><path class="cls-2" d="M869,680.07c-5.71,2.32-11-.8-16.41-1.54-18.17-2.49-36.26-5.64-54.37-8.56-24.32-3.9-48.63-7.88-73-11.72-20.25-3.19-40.53-6.16-60.79-9.33-13.23-2.07-26.43-4.33-39.64-6.5-7.3-1.19-14.79-1.38-21.77-4.25,26.33-19.19,54.9-33.08,87.72-36.78,18.86-2.13,36.61,2.21,54,9.17,39.58,15.85,75.89,37.64,111.49,60.75C860.53,674.11,864.7,677.14,869,680.07Z" transform="translate(-112.98 -42.92)"/><path class="cls-2" d="M536,628.12,567.13,643c12.71,7.67,24.57,16.29,33.31,28.59,13.52,19,14.6,39.37,6.73,60.73-5.79,15.7-15.11,29.16-26.48,41.29-1.36,1.46-2.3,3-4.54.44-20.23-22.93-37.2-47.76-45.52-77.63-5.42-19.44-6.55-39-.47-58.54q1.92-5,3.85-10Z" transform="translate(-112.98 -42.92)"/><path class="cls-2" d="M451.17,690.14l-1.12-.14c-8.86-17.92-16.1-36.38-20.64-56-8-34.4,4.08-62.43,27.06-87,8.19-8.75,9.12-8.3,14.39,2.33,11.11,22.41,19.16,45.74,19.77,71C491.33,649,480.17,674.78,451.17,690.14Z" transform="translate(-112.98 -42.92)"/><path class="cls-2" d="M363,820.85c.54-18.78,1.95-37.37,10.76-54.54a42.84,42.84,0,0,1,12.55-14.56C402.74,739.22,417,724.51,430.59,709c4.69-5.36,9.42-10.68,14-16.15,1.8-2.16,4.09-1.82,6.36-2l1.18,1.83L454.06,706c2.88,18.32-2.31,34.86-11.72,50.23-14.08,23-34.56,39.29-57,53.33-6,3.77-12.43,7-18.7,10.42C365.54,820.54,364.52,821.78,363,820.85Z" transform="translate(-112.98 -42.92)"/><path class="cls-3" d="M534.08,239.94l2-.91c22.56-4.34,45-1.48,67.33,1.59A461.24,461.24,0,0,1,657,251.19c-.84,2.93-3.58,2.67-5.68,3.1-26.24,5.37-52.42,11-78.67,16.37-18.57,3.78-37,8.21-55.72,11.36a15.41,15.41,0,0,0-4.71.46c.66.4,1.69-.63,2.76-.42,20,.4,36.81,7.53,49.39,23.61,4.92,6.28,9.86,12.53,14.32,19.14,1.1,1.63,2.5,3.16,2.41,5.34q9.82,16.75,19.62,33.52c2.91,5,2.65,5.43-3.07,6.33-12,1.89-24,3.28-36.13,3.08-14.14-.24-27.7-2.71-40.46-9A60.29,60.29,0,0,1,507,352a9.52,9.52,0,0,1-3.72-3.88c-5-9.18-9.54-18.53-12.25-28.66,0-.67-1-.05-.37-.22.19,0,.32.11.24.43-2.68,9.79-6.41,19-13.95,26.2-18.61,21.53-44.69,30.45-69.71,41.07-12.54,5.33-25.55,9.47-38.53,13.61-2.2.7-4.5,1.09-6.75,1.62-.57-3.12,2-4.34,3.77-5.9,13.64-12.19,27.06-24.62,40.67-36.83,16.47-14.77,32.71-29.78,49.18-44.55,9-8.1,18.17-16.1,26.86-24.59,2.61-2.54,5.08-4.44,8.45-1,1.45,1.47,3.11.59,4.54-.38,16.56-11.14,29.95-24.83,35.93-44.51C531.9,242.71,531.93,240.67,534.08,239.94Z" transform="translate(-112.98 -42.92)"/><path class="cls-4" d="M516,281.08q49-10.26,98-20.51,20.63-4.31,41.25-8.57a8.9,8.9,0,0,0,1.75-.81c2.44-.1,3.63.55,2.08,3.15-16.41,27.48-35.17,52.8-63.39,69.51a73.32,73.32,0,0,1-14.59,6.3c-7.52-10-14.39-20.54-23.11-29.66-9.23-9.68-20.75-14.41-33.64-16.44-3.08-.49-6.21-.71-9.32-1.05C514.38,281.86,515.45,281.6,516,281.08Z" transform="translate(-112.98 -42.92)"/><path class="cls-4" d="M534.08,239.94a76.89,76.89,0,0,1-21.89,37.25A122.92,122.92,0,0,1,495,290.72c-2.38,1.57-4,1.4-5.41-.79-1.58-2.48-2.94-1.9-4.74-.24q-17.94,16.51-36,32.92c-20,18.16-40.31,36.05-60.12,54.44-9,8.34-18.66,15.92-26.79,25.15-3.3,2.24-4,1-4-2.53a237.46,237.46,0,0,1,9.2-67.66c3.75-9.75,7.59-19.39,13.48-28.18,7.9-11.81,18.7-19.58,31.68-24.72,8.35,2,16.51,4.67,25.19,5.38A150.28,150.28,0,0,0,477.15,283c3.5-.65,4-3.74,1.2-7.93a102.45,102.45,0,0,1-13.27-28.31c-3.65-12.52-4.36-25.09-.23-37.67,5.91-22,17.81-39.78,36.51-53,3.12-2.2,5-2.46,7.61,1,12.65,16.83,22.16,35,25.47,56.06C535.84,222.09,535.27,231,534.08,239.94Z" transform="translate(-112.98 -42.92)"/><path class="cls-1" d="M477,345.9a116.85,116.85,0,0,0,14.34-29.4A147.11,147.11,0,0,0,507,352c-8.06-1.73-16.15-3.38-24.18-5.27A39.2,39.2,0,0,0,477,345.9Z" transform="translate(-112.98 -42.92)"/><path class="cls-5" d="M516,281.08c-.33.64-.66,1.28-1,1.92h-4.56C512.51,281.51,514.13,280.93,516,281.08Z" transform="translate(-112.98 -42.92)"/></svg>