<svg xmlns="http://www.w3.org/2000/svg" viewBox="0 0 55.23 64.63"><defs><style>.cls-1{fill:none;stroke:#759c3f;stroke-miterlimit:10;stroke-width:0.64px;}.cls-2{fill:#759c3f;}.cls-3{fill:#447337;}.cls-4{fill:#9a4d9d;}.cls-5{fill:#c78abc;}</style></defs><g id="Layer_2" data-name="Layer 2"><g id="Layer_1-2" data-name="Layer 1"><path class="cls-1" d="M22.91,64.51s7.62-19,5.42-40.32"/><line class="cls-1" x1="27.41" y1="49.4" x2="18.73" y2="43.75"/><line class="cls-1" x1="28.19" y1="42.39" x2="36.2" y2="43.83"/><path class="cls-2" d="M22.31,45.68l-.25.1C3.4,53,.22,34.91,0,33.64a.45.45,0,0,1,0-.08S8.54,30,14.19,33.14,22.31,45.68,22.31,45.68Z"/><path class="cls-3" d="M28.4,25.08l-.23-.14C11.12,14.51,23.51,1,24.39.06L24.44,0s8,4.59,9,11S28.4,25.08,28.4,25.08Z"/><path class="cls-2" d="M18.18,56.57l0,0c-.35-.27-3.79-3.15-2.74-5.9,1-2.56,7.33-3.38,8.8-3.54l.3,0C26.45,52.85,18.18,56.57,18.18,56.57Z"/><path class="cls-3" d="M24.52,47.06s-2.62-4.68-1.38-7.58,2.48-3.3,2.48-3.3S30.3,43.89,24.52,47.06Z"/><path class="cls-3" d="M29.13,23.28s-1.63,7.57-5.73,9.51S17.57,34,17.57,34,19.85,21.19,29.13,23.28Z"/><path class="cls-3" d="M55.23,46.54s-8.33,7.36-13.8,3.87-6-7-6-7l.12-.1c.78-.59,5.14-3.7,9.17-2.47s9.41,4.89,10.4,5.58Z"/><path class="cls-3" d="M22.06,45.78C3.4,53,.22,34.91,0,33.64,2.86,34.9,17.32,41.38,22.06,45.78Z"/><path class="cls-3" d="M18.18,56.57l0,0c0-1.75.33-4,1.63-5a29.1,29.1,0,0,0,4.43-4.46l.3,0C26.45,52.85,18.18,56.57,18.18,56.57Z"/><line class="cls-1" x1="32.29" y1="39.7" x2="31.09" y2="42.82"/><path class="cls-2" d="M31.6,41.21S32,37.28,35,36a6.48,6.48,0,0,1,5.16-.22S38.67,43.78,31.6,41.21Z"/><path class="cls-3" d="M30.59,42.54S28,46.93,33.78,53.28C33.78,53.28,41,46.43,30.59,42.54Z"/><path class="cls-2" d="M55.23,46.54s-8.33,7.36-13.8,3.87-6-7-6-7l.12-.1,19.57,3.11Z"/><path class="cls-3" d="M54,9.88s-15.51-6-21.4,1.7-4.91,12.94-4.91,12.94l.22.07C29.3,25,37,27.14,42.06,23.33S52.78,11.59,53.8,10.11A1.35,1.35,0,0,0,54,9.88Z"/><path class="cls-2" d="M54,9.88s-15.51-6-21.4,1.7-4.91,12.94-4.91,12.94l.22.07L53.8,10.11A1.35,1.35,0,0,0,54,9.88Z"/><path class="cls-2" d="M27.56,23.29l.23-.15c17-10.49,23.47,6.66,23.9,7.87a.18.18,0,0,1,0,.08s-7.73,5.09-13.87,3S27.56,23.29,27.56,23.29Z"/><path class="cls-2" d="M30.3,22.75l-.23.22C13.29,39.45,1.4,21.44.59,20.16l0-.07S8.08,12.22,15.67,13,30.3,22.75,30.3,22.75Z"/><path class="cls-3" d="M30.07,23C13.29,39.45,1.4,21.44.59,20.16,4.25,20.19,22.89,20.43,30.07,23Z"/><path class="cls-4" d="M39.73,15.21s-3.51,6.7-7.84,5.8-5.54-3-5.54-3l.06-.09c.35-.57,2.37-3.6,5.23-3.8a32,32,0,0,1,8,1Z"/><path class="cls-5" d="M39.73,15.21s-3.51,6.7-7.84,5.8-5.54-3-5.54-3l.06-.09,13.2-2.76Z"/><path class="cls-4" d="M17.81,26.24s-.36-7.56,3.83-9S27.92,17,27.92,17v.1c0,.67-.23,4.31-2.6,5.92a30.89,30.89,0,0,1-7.39,3.14Z"/><path class="cls-5" d="M17.81,26.24s-.36-7.56,3.83-9S27.92,17,27.92,17v.1l-10,9.06Z"/><path class="cls-4" d="M15.47,9.49s7.31-1.93,9.58,1.86,1.55,6.1,1.55,6.1h-.1c-.66.13-4.26.69-6.34-1.29a31.82,31.82,0,0,1-4.62-6.56Z"/><path class="cls-4" d="M35.59,23.7S30.08,25,28.44,22.17s-1.08-4.59-1.08-4.59h.08c.49-.09,3.2-.46,4.73,1.05a24.16,24.16,0,0,1,3.37,5A.26.26,0,0,1,35.59,23.7Z"/><path class="cls-5" d="M27.53,18.14s-2.81-2.77-2-5.87a6.49,6.49,0,0,1,3-4.19S33.93,14.18,27.53,18.14Z"/></g></g></svg>